# xmcd
#
# Track frame offsets:
#	150
#	15910
#	30307
#	41372
#	60917
#	79012
#	92165
#	110567
#	124715
#	143867
#	160477
#	176927
#	200447
#	211645
#
# Disc length: 3003 seconds
#
# Revision: 1
# Processed by: cddbd v1.5.1PL2 Copyright (c) Steve Scherf et al.
# Submitted via: audiograbber 1.83.01
#
DISCID=ad0bb90e
DTITLE=John Brack - Wise Men Quartet 
DYEAR=2005
DGENRE=Gospel
TTITLE0=Givin it up
TTITLE1=Strong tower
TTITLE2=If ith had not been for god
TTITLE3=Gospel reloaded
TTITLE4=Lead me on
TTITLE5=I'll be rewarded
TTITLE6=Will you comfort them
TTITLE7=Come out of the wilderness
TTITLE8=Crimson stream
TTITLE9=Wake up your soul
TTITLE10=Have you met my Jesus
TTITLE11=Am I worthy
TTITLE12=Another one like him
TTITLE13=Ave Maria
EXTD=
EXTT0=
EXTT1=
EXTT2=
EXTT3=
EXTT4=
EXTT5=
EXTT6=
EXTT7=
EXTT8=
EXTT9=
EXTT10=
EXTT11=
EXTT12=
EXTT13=
PLAYORDER=
